<?xml version="1.0" encoding="utf-8"?>
<!-- Generator: Adobe Illustrator 22.0.1, SVG Export Plug-In . SVG Version: 6.00 Build 0)  -->
<svg version="1.1" id="Ebene_1" xmlns="http://www.w3.org/2000/svg" xmlns:xlink="http://www.w3.org/1999/xlink" x="0px" y="0px"
	 viewBox="0 0 399.9 142.6" style="enable-background:new 0 0 399.9 142.6;" xml:space="preserve">
<style type="text/css">
	.st0{fill:none;}
	.st1{fill:#69C8F3;}
	.st2{font-family:'DancingScript-Bold';}
	.st3{font-size:61px;}
	.st4{fill:#454444;}
</style>
<g>
	<rect x="291.7" y="-0.7" class="st0" width="107.3" height="63.3"/>
	<text transform="matrix(1 0 0 1 291.6667 43.2519)" class="st1 st2 st3">Beta</text>
	<g>
		<g>
			<g>
				<defs>
					<path id="SVGID_1_" d="M76.4,99.3c0-8.6,0-29.7,0-43.1c0-4.7-5.5-7.2-9.1-4.3L43.9,70.7c-3.1,2.5-7.6,2.5-10.7,0L9.8,51.9
						c-3.6-2.9-9.1-0.4-9.1,4.3c0,13.3,0,34.4,0,43.1c0,13.1,6.6,17.1,6.6,17.1s19.3,17.2,25.2,22c3.7,2.9,8.5,3,12.2,0
						c5.9-4.7,25.2-22,25.2-22S76.4,112.3,76.4,99.3z"/>
				</defs>
				<linearGradient id="SVGID_2_" gradientUnits="userSpaceOnUse" x1="38.5317" y1="50.6418" x2="38.5317" y2="140.5">
					<stop  offset="0" style="stop-color:#FABC2F"/>
					<stop  offset="1" style="stop-color:#F59C08"/>
				</linearGradient>
				<use xlink:href="#SVGID_1_"  style="overflow:visible;fill-rule:evenodd;clip-rule:evenodd;fill:url(#SVGID_2_);"/>
				<clipPath id="SVGID_3_">
					<use xlink:href="#SVGID_1_"  style="overflow:visible;"/>
				</clipPath>
			</g>
		</g>
		<g>
			<path class="st4" d="M155.8,120l-8.4-24.8l-8.7,24.8h-13.8l-16.7-41.2c-1.1-2.9-2.2-5.1-3.3-6.7c-1-1.6-2-2.8-2.9-3.7v-1h24v1
				c-1.1,0.9-1.7,2.1-1.7,3.6c-0.1,1.5,0.4,3.8,1.5,6.8l6.9,18.5L144,67.4h6.4l11.7,28.9l6.4-17.5c1.1-2.9,1.6-5.1,1.5-6.7
				c-0.1-1.6-0.6-2.8-1.7-3.7v-1h21.6v1c-0.7,0.9-1.5,2.1-2.4,3.7c-0.9,1.6-2,3.8-3.1,6.7L167.6,120H155.8z"/>
			<path class="st4" d="M237.1,99.1c0.8,0.5,1.5,1.4,2.2,2.5c0.7,1.2,1.1,2.7,1.1,4.5c0,1.7-0.5,3.5-1.4,5.3c-1,1.8-2.4,3.4-4.3,4.9
				c-1.9,1.5-4.4,2.7-7.4,3.6c-3,0.9-6.5,1.4-10.5,1.4c-4.1,0-7.9-0.7-11.4-2.2c-3.4-1.4-6.4-3.4-9-5.9c-2.5-2.5-4.5-5.5-5.9-8.9
				c-1.4-3.4-2.1-7.1-2.1-11c0-4.1,0.8-7.8,2.3-11.1c1.5-3.3,3.6-6.2,6.2-8.6c2.6-2.4,5.6-4.2,9.1-5.5c3.4-1.3,7-2,10.8-2
				c3.8,0,7.2,0.5,10.2,1.5c3,1,5.5,2.4,7.6,4.2c2.1,1.8,3.6,3.8,4.7,6.1c1.1,2.3,1.6,4.7,1.6,7.2c0,2.1-0.5,4-1.4,5.8
				c-1,1.8-2.3,3.3-4.1,4.6c-1.8,1.3-4,2.3-6.5,3.1c-2.6,0.8-5.5,1.1-8.7,1.1c-3.3,0-6.1-0.3-8.5-1c-2.4-0.7-4.4-1.4-5.8-2.2
				c0.7,3.1,2.4,5.6,5,7.5c2.6,1.9,6,2.9,10.1,2.9c2.2,0,4.1-0.3,5.8-0.8c1.7-0.5,3.3-1.1,4.6-1.9c1.3-0.8,2.5-1.6,3.4-2.5
				C235.6,100.9,236.4,100,237.1,99.1z M206.2,88c1.1,0.7,2.5,1.3,4.2,1.9c1.7,0.5,3.6,0.8,5.8,0.8c2.4,0,4.4-0.5,5.8-1.5
				c1.5-1,2.2-2.4,2.2-4c0-1.5-0.6-2.8-1.8-3.8c-1.2-1-2.9-1.5-5.2-1.5c-2.5,0-4.7,0.8-6.7,2.3C208.6,83.6,207.1,85.6,206.2,88z"/>
			<path class="st4" d="M248.5,120v-1.1c1.3-0.9,2.2-2.1,2.6-3.7c0.5-1.6,0.7-3.8,0.7-6.6V80.8h-8.3V67.4h8.2
				c-0.9-1.1-1.6-2.3-2.2-3.7c-0.6-1.4-0.9-2.9-0.9-4.5c0-2.2,0.4-4.3,1.2-6.1c0.8-1.8,1.9-3.4,3.3-4.7c1.4-1.3,3.1-2.3,5.1-3
				c1.9-0.7,4.1-1.1,6.5-1.1c1.7,0,3.3,0.3,4.7,0.8c1.4,0.5,2.7,1.2,3.7,2.1c1.1,0.9,1.9,1.8,2.5,3c0.6,1.1,0.9,2.3,0.9,3.6
				c0,2.3-0.6,4.1-1.7,5.4c-1.1,1.3-2.5,2.1-4.3,2.4c0-1.2-0.3-2.3-1-3.2c-0.6-0.9-1.6-1.4-2.9-1.4c-1,0-1.9,0.4-2.6,1.1
				c-0.7,0.8-1.1,1.8-1.1,3.3c0,1.8,0.8,3.2,2.3,4.3c1.5,1.1,3.4,1.7,5.5,1.7h6.2v13.4h-8.6v27.8c0,2.9,0.3,5.1,0.8,6.6
				c0.5,1.6,1.4,2.8,2.6,3.7v1.1H248.5z"/>
			<path class="st4" d="M339.5,94c0,4-0.8,7.7-2.4,11c-1.6,3.3-3.8,6.2-6.5,8.7c-2.7,2.5-5.9,4.3-9.5,5.7c-3.6,1.3-7.3,2-11.2,2
				c-3.9,0-7.6-0.7-11.2-2c-3.6-1.3-6.7-3.2-9.5-5.7c-2.7-2.5-4.9-5.4-6.5-8.7c-1.6-3.3-2.4-7-2.4-11c0-4.2,0.8-8,2.4-11.5
				c1.6-3.4,3.8-6.4,6.5-8.7c2.7-2.4,5.9-4.2,9.5-5.5c3.6-1.3,7.3-2,11.2-2c3.9,0,7.6,0.7,11.2,2c3.6,1.3,6.8,3.2,9.5,5.5
				c2.7,2.4,4.9,5.3,6.5,8.7C338.7,86,339.5,89.8,339.5,94z M309.8,107.1c1.8,0,3.4-0.3,5-0.9c1.5-0.6,2.9-1.4,4-2.5
				c1.1-1.1,2-2.5,2.7-4.1c0.6-1.6,1-3.5,1-5.6c0-2.1-0.3-4-1-5.6c-0.6-1.7-1.5-3-2.7-4.1c-1.1-1.1-2.5-1.9-4-2.5
				c-1.5-0.6-3.2-0.9-5-0.9c-1.8,0-3.4,0.3-5,0.9c-1.5,0.6-2.9,1.4-4,2.5c-1.1,1.1-2,2.5-2.7,4.1c-0.6,1.7-1,3.5-1,5.6
				c0,2.1,0.3,4,1,5.6c0.6,1.6,1.5,3,2.7,4.1c1.1,1.1,2.5,2,4,2.5C306.4,106.8,308.1,107.1,309.8,107.1z"/>
			<path class="st4" d="M371.5,120.1l-0.1-1c1.1-0.8,1.6-1.8,1.2-3.1c-0.3-1.3-1.4-3.2-3.2-5.8l-3.5-4.9l-3.2,4.9
				c-1.7,2.5-2.7,4.4-2.8,5.7c-0.2,1.3,0.4,2.4,1.6,3.2v1h-23.3v-1c0.7-0.8,1.6-1.8,2.6-3.2c1-1.4,2.5-3.3,4.3-5.7l12.4-16.8
				l-11.5-15.9c-1.8-2.6-3.3-4.6-4.4-5.9c-1.1-1.3-2.1-2.4-3.2-3.2v-1h25.5v1c-1.2,0.8-1.6,1.8-1.3,3.2c0.3,1.3,1.4,3.3,3.3,5.9
				l4,5.5l3.6-5.5c1.7-2.5,2.6-4.5,2.7-5.9c0.2-1.4-0.4-2.4-1.7-3.2v-1H398v1c-0.7,0.8-1.5,1.9-2.5,3.3c-1,1.4-2.4,3.4-4.3,5.8
				l-12.9,17.3l11.1,15.4c1.8,2.6,3.5,4.6,4.9,5.8c1.4,1.3,2.6,2.3,3.7,3.1v1H371.5z"/>
		</g>
	</g>
</g>
</svg>
