<svg xmlns="http://www.w3.org/2000/svg" width="160" height="42" viewBox="0 0 160 42"><path fill-rule="evenodd" clip-rule="evenodd" fill="#ED9337" d="M20.605 34.74s-5.736 5.138-7.494 6.544c-1.112.888-2.542.869-3.632 0C7.717 39.878 1.97 34.74 1.97 34.74S0 33.543 0 29.65c0-2.576.009-8.868.015-12.836.002-1.388 1.622-2.153 2.708-1.279l6.976 5.61a2.55 2.55 0 0 0 3.196-.001l6.952-5.604c1.086-.875 2.708-.111 2.71 1.278.005 3.969.015 10.258.015 12.832-.001 3.893-1.967 5.09-1.967 5.09"/><path clip-rule="evenodd" fill="none" d="M46.154 35.928l-2.526-7.393-2.613 7.393h-4.134l-5.023-12.3c-.689-1.712-1.292-2.598-1.838-3.111v-.286h7.206v.286c-.632.513-.717 1.34-.057 3.111l2.067 5.507 3.387-8.903h1.923l3.503 8.618 1.924-5.222c.63-1.685.574-2.598-.059-3.111v-.286h6.488v.286c-.401.513-.975 1.399-1.666 3.111l-5.023 12.3h-3.559z"/><path fill-rule="evenodd" clip-rule="evenodd" fill="#fff" d="M91.883 19.86c-4.68 0-8.9 3.225-8.9 8.276 0 4.794 4.221 8.19 8.9 8.19 4.707 0 8.9-3.396 8.9-8.19 0-5.051-4.193-8.276-8.9-8.276zm0 12.187c-2.125 0-3.789-1.428-3.789-3.91 0-2.541 1.664-3.909 3.789-3.909s3.789 1.368 3.789 3.909c0 2.482-1.664 3.91-3.789 3.91zm24.287-8.818l-3.877 5.164 3.33 4.596c1.119 1.542 1.953 2.197 2.584 2.653v.286h-7.953l-.027-.286c.688-.456.518-1.111-.604-2.653l-1.062-1.455-.977 1.455c-1.033 1.484-1.09 2.197-.373 2.653v.286h-7.004v-.286c.402-.456.977-1.197 2.066-2.653l3.732-5.022-3.445-4.737c-1.119-1.541-1.637-2.254-2.268-2.711v-.286h7.664v.286c-.717.457-.516 1.17.604 2.711l1.207 1.654 1.09-1.654c1.006-1.513 1.092-2.254.316-2.711v-.286h7.033v.286c-.401.455-.946 1.254-2.036 2.71zM80.4 20.231h1.866v3.996h-2.583v8.304c0 1.713.287 2.568 1.005 3.082v.314h-7.033v-.314c.774-.514 1.005-1.369 1.005-3.082v-8.304h-2.498v-3.996h2.469a3.684 3.684 0 0 1-.918-2.454c0-2.683 2.009-4.424 4.822-4.424 2.068 0 3.561 1.284 3.561 2.796 0 1.37-.747 2.169-1.78 2.341 0-.714-.375-1.37-1.148-1.37-.604 0-1.12.485-1.12 1.312-.002 1.058 1.06 1.799 2.352 1.799zm-8.955 5.28c0-2.997-2.613-5.65-7.235-5.65-4.537 0-8.527 3.254-8.527 8.105 0 4.708 3.589 8.361 8.527 8.361 4.851 0 7.119-2.482 7.119-4.51 0-1.085-.516-1.798-.976-2.111-.833 1.026-2.297 2.369-4.909 2.369-2.44 0-4.106-1.313-4.537-3.11.89.455 2.354.941 4.307.941 3.848 0 6.231-1.912 6.231-4.395zm-10.365.884c.546-1.426 1.838-2.453 3.331-2.453 1.321 0 2.096.686 2.096 1.599 0 .97-.948 1.655-2.412 1.655-1.349-.001-2.326-.373-3.015-.801zm-4.677-5.878c-.401.513-.975 1.399-1.666 3.111l-5.023 12.3h-3.56l-2.526-7.393-2.613 7.393h-4.134l-5.023-12.3c-.689-1.712-1.292-2.598-1.838-3.111v-.286h7.206v.286c-.632.513-.717 1.34-.057 3.111l2.067 5.507 3.387-8.903h1.923l3.503 8.618 1.924-5.222c.63-1.685.574-2.598-.059-3.111v-.286h6.488v.286z"/></svg>